<svg xmlns="http://www.w3.org/2000/svg" version="1.1" xmlns:xlink="http://www.w3.org/1999/xlink" xmlns:svgjs="http://svgjs.dev/svgjs" width="1500" height="1500" viewBox="0 0 1500 1500"><rect width="1500" height="1500" fill="#fff6e9"></rect><g transform="matrix(0.6666666666666666,0,0,0.6666666666666666,249.39393939393938,664.5966209523538)"><svg viewBox="0 0 396 68" data-background-color="#fff6e9" preserveAspectRatio="xMidYMid meet" height="257" width="1500" xmlns="http://www.w3.org/2000/svg" xmlns:xlink="http://www.w3.org/1999/xlink"><g id="tight-bounds" transform="matrix(1,0,0,1,0.2400000000000091,-0.10449547525320213)"><svg viewBox="0 0 395.52 68.20899095050643" height="68.20899095050643" width="395.52"><g><svg viewBox="0 0 492.74970987300975 84.97663961770023" height="68.20899095050643" width="395.52"><g><rect width="2.589403541117894" height="74.5311052209799" x="87.86176303053614" y="5.222767198360167" fill="#e37515" opacity="1" stroke-width="0" stroke="transparent" fill-opacity="1" class="rect-qz-0" data-fill-palette-color="primary" rx="1%" id="qz-0" data-palette-color="#e37515"></rect></g><g transform="matrix(1,0,0,1,97.22970987300977,11.433692633441826)"><svg viewBox="0 0 395.52 62.10925435081658" height="62.10925435081658" width="395.52"><g id="textblocktransform"><svg viewBox="0 0 395.52 62.10925435081658" height="62.10925435081658" width="395.52" id="textblock"><g><svg viewBox="0 0 395.52 28.71339442110059" height="28.71339442110059" width="395.52"><g transform="matrix(1,0,0,1,0,0)"><svg width="395.52" viewBox="2.86 -35.01 482.21 35.01" height="28.71339442110059" data-palette-color="#e37515"><path d="M9.84-13.99L23.85-13.99 23.85-21Q23.85-22.44 23.3-23.72 22.75-25 21.8-25.95 20.85-26.9 19.57-27.45 18.29-28 16.85-28L16.85-28Q15.41-28 14.12-27.45 12.84-26.9 11.89-25.95 10.94-25 10.39-23.72 9.84-22.44 9.84-21L9.84-21 9.84-13.99ZM30.86-21L30.86 0 23.85 0 23.85-7.01 9.84-7.01 9.84 0 2.86 0 2.86-21Q2.86-23.9 3.96-26.45 5.05-29 6.95-30.91 8.84-32.81 11.39-33.91 13.94-35.01 16.85-35.01L16.85-35.01Q19.75-35.01 22.3-33.91 24.85-32.81 26.76-30.91 28.66-29 29.76-26.45 30.86-23.9 30.86-21L30.86-21ZM64.94-35.01L64.94 0 57.44 0 43.94-23.05 43.94 0 36.94 0 36.94-35.01 44.43-35.01 57.93-11.94 57.93-35.01 64.94-35.01ZM78.02-13.99L92.04-13.99 92.04-21Q92.04-22.44 91.49-23.72 90.94-25 89.99-25.95 89.03-26.9 87.75-27.45 86.47-28 85.03-28L85.03-28Q83.59-28 82.31-27.45 81.03-26.9 80.07-25.95 79.12-25 78.57-23.72 78.02-22.44 78.02-21L78.02-21 78.02-13.99ZM99.04-21L99.04 0 92.04 0 92.04-7.01 78.02-7.01 78.02 0 71.04 0 71.04-21Q71.04-23.9 72.14-26.45 73.24-29 75.13-30.91 77.02-32.81 79.57-33.91 82.12-35.01 85.03-35.01L85.03-35.01Q87.93-35.01 90.49-33.91 93.04-32.81 94.94-30.91 96.85-29 97.94-26.45 99.04-23.9 99.04-21L99.04-21ZM129.12-7.01L129.12 0 105.12 0 105.12-35.01 129.12-35.01 129.12-28 112.13-28 112.13-21 123.63-21 123.63-13.99 112.13-13.99 112.13-7.01 129.12-7.01ZM158.53-7.01L158.53 0 134.02 0 134.02-35.01 141.03-35.01 141.03-7.01 158.53-7.01ZM182.75-13.99L196.76-13.99 196.76-21Q196.76-22.44 196.21-23.72 195.66-25 194.71-25.95 193.76-26.9 192.48-27.45 191.2-28 189.76-28L189.76-28Q188.32-28 187.03-27.45 185.75-26.9 184.8-25.95 183.85-25 183.3-23.72 182.75-22.44 182.75-21L182.75-21 182.75-13.99ZM203.77-21L203.77 0 196.76 0 196.76-7.01 182.75-7.01 182.75 0 175.77 0 175.77-21Q175.77-23.9 176.86-26.45 177.96-29 179.86-30.91 181.75-32.81 184.3-33.91 186.85-35.01 189.76-35.01L189.76-35.01Q192.66-35.01 195.21-33.91 197.76-32.81 199.67-30.91 201.57-29 202.67-26.45 203.77-23.9 203.77-21L203.77-21ZM237.9-17.5L237.9-17.5Q237.9-15.09 237.27-12.85 236.65-10.62 235.5-8.68 234.36-6.74 232.77-5.14 231.18-3.54 229.23-2.39 227.28-1.25 225.04-0.62 222.81 0 220.39 0L220.39 0 209.85 0 209.85-35.01 220.39-35.01Q222.81-35.01 225.04-34.39 227.28-33.76 229.23-32.62 231.18-31.47 232.77-29.87 234.36-28.27 235.5-26.33 236.65-24.39 237.27-22.16 237.9-19.92 237.9-17.5ZM230.89-17.5L230.89-17.5Q230.89-19.68 230.07-21.58 229.25-23.49 227.83-24.91 226.4-26.34 224.48-27.17 222.57-28 220.39-28L220.39-28 216.9-28 216.9-7.01 220.39-7.01Q222.57-7.01 224.48-7.82 226.4-8.64 227.83-10.07 229.25-11.5 230.07-13.42 230.89-15.33 230.89-17.5ZM260.67-35.01L268.68-35.01 257.18 0 250.18 0 238.73-35.01 246.68-35.01 253.67-11.65 260.67-35.01ZM296.02-7.01L296.02 0 272.02 0 272.02-35.01 296.02-35.01 296.02-28 279.03-28 279.03-21 290.53-21 290.53-13.99 279.03-13.99 279.03-7.01 296.02-7.01ZM328.93-35.01L328.93 0 321.43 0 307.93-23.05 307.93 0 300.93 0 300.93-35.01 308.42-35.01 321.92-11.94 321.92-35.01 328.93-35.01ZM350.12-28L350.12 0 343.14 0 343.14-28 332.61-28 332.61-35.01 360.62-35.01 360.62-28 350.12-28ZM391.94-35.01L391.94-13.99Q391.94-11.08 390.84-8.53 389.74-5.98 387.84-4.09 385.93-2.2 383.38-1.1 380.83 0 377.92 0L377.92 0Q375.02 0 372.47-1.1 369.92-2.2 368.02-4.09 366.13-5.98 365.03-8.53 363.93-11.08 363.93-13.99L363.93-13.99 363.93-35.01 370.92-35.01 370.92-13.99Q370.92-12.55 371.47-11.28 372.02-10.01 372.97-9.06 373.92-8.11 375.2-7.56 376.48-7.01 377.92-7.01L377.92-7.01Q379.36-7.01 380.65-7.56 381.93-8.11 382.88-9.06 383.83-10.01 384.38-11.28 384.93-12.55 384.93-13.99L384.93-13.99 384.93-35.01 391.94-35.01ZM412.03-28L405.02-28 405.02-13.99 412.03-13.99Q413.47-13.99 414.74-14.54 416.01-15.09 416.96-16.04 417.91-16.99 418.46-18.27 419.01-19.56 419.01-21L419.01-21Q419.01-22.44 418.46-23.72 417.91-25 416.96-25.95 416.01-26.9 414.74-27.45 413.47-28 412.03-28L412.03-28ZM405.02-7.01L405.02 0 398.01 0 398.01-35.01 412.03-35.01Q413.96-35.01 415.74-34.51 417.52-34.01 419.07-33.09 420.62-32.18 421.9-30.9 423.19-29.61 424.1-28.05 425.02-26.49 425.52-24.71 426.02-22.92 426.02-21L426.02-21Q426.02-19.19 425.57-17.48 425.11-15.77 424.27-14.23 423.43-12.7 422.21-11.4 420.99-10.11 419.47-9.16L419.47-9.16 423.36 0 415.91 0 412.86-7.06 405.02-7.01ZM454.6-7.01L454.6 0 430.6 0 430.6-35.01 454.6-35.01 454.6-28 437.61-28 437.61-21 449.11-21 449.11-13.99 437.61-13.99 437.61-7.01 454.6-7.01ZM457.07-24.51L457.07-24.51Q457.07-26.68 457.9-28.59 458.73-30.49 460.16-31.92 461.58-33.35 463.49-34.18 465.39-35.01 467.57-35.01L467.57-35.01 483.63-35.01 483.63-28 467.57-28Q466.83-28 466.2-27.73 465.56-27.47 465.09-26.99 464.61-26.51 464.34-25.88 464.07-25.24 464.07-24.51L464.07-24.51Q464.07-23.78 464.34-23.13 464.61-22.49 465.09-22.01 465.56-21.53 466.2-21.26 466.83-21 467.57-21L467.57-21 474.57-21Q476.74-21 478.66-20.18 480.58-19.36 482.01-17.93 483.43-16.5 484.25-14.59 485.07-12.67 485.07-10.5L485.07-10.5Q485.07-8.33 484.25-6.42 483.43-4.52 482.01-3.09 480.58-1.66 478.66-0.83 476.74 0 474.57 0L474.57 0 459.02 0 459.02-7.01 474.57-7.01Q475.3-7.01 475.94-7.28 476.57-7.54 477.05-8.02 477.53-8.5 477.79-9.13 478.06-9.77 478.06-10.5L478.06-10.5Q478.06-11.23 477.79-11.87 477.53-12.5 477.05-12.98 476.57-13.45 475.94-13.72 475.3-13.99 474.57-13.99L474.57-13.99 467.57-13.99Q465.39-13.99 463.49-14.82 461.58-15.65 460.16-17.08 458.73-18.51 457.9-20.42 457.07-22.34 457.07-24.51Z" opacity="1" transform="matrix(1,0,0,1,0,0)" fill="#e37515" class="wordmark-text-0" data-fill-palette-color="primary" id="text-0"></path></svg></g></svg></g><g transform="matrix(1,0,0,1,0,35.49193772245633)"><svg viewBox="0 0 225.94750814463225 26.617316628360246" height="26.617316628360246" width="225.94750814463225"><g transform="matrix(1,0,0,1,0,0)"><svg width="225.94750814463225" viewBox="2.2 -37.7 404.91 47.71" height="26.617316628360246" data-palette-color="#106a46"><path d="M12.26 10.01L8.84 9.96 8.84 3.25 12.55 3.3Q13.53 3.3 14.43 2.98 15.33 2.66 16.1 2.1 16.87 1.54 17.46 0.77 18.04 0 18.41-0.9L18.41-0.9Q17.31-0.44 16.17 0.02 15.04 0.49 13.89 0.49L13.89 0.49Q11.47 0.49 9.35-0.37 7.23-1.22 5.63-2.8 4.03-4.37 3.11-6.63 2.2-8.89 2.2-11.69L2.2-11.69 2.2-26.15 8.84-26.15 8.84-11.69Q8.84-10.3 9.24-9.27 9.64-8.23 10.33-7.53 11.01-6.84 11.93-6.49 12.84-6.15 13.89-6.15L13.89-6.15Q14.92-6.15 15.83-6.63 16.75-7.1 17.43-7.89 18.12-8.67 18.51-9.66 18.9-10.64 18.9-11.69L18.9-11.69 18.9-26.15 25.61-26.15 25.61-3.3Q25.59-0.54 24.54 1.88 23.49 4.3 21.67 6.1 19.85 7.91 17.43 8.96 15.01 10.01 12.26 10.01L12.26 10.01ZM55.95-13.31L55.95-13.31Q55.95-10.38 54.9-7.85 53.85-5.32 52.05-3.48 50.24-1.64 47.81-0.57 45.38 0.49 42.6 0.49L42.6 0.49Q39.84 0.49 37.41-0.57 34.98-1.64 33.16-3.48 31.35-5.32 30.3-7.85 29.25-10.38 29.25-13.31L29.25-13.31Q29.25-16.28 30.3-18.82 31.35-21.36 33.16-23.21 34.98-25.05 37.41-26.1 39.84-27.15 42.6-27.15L42.6-27.15Q45.38-27.15 47.81-26.16 50.24-25.17 52.05-23.35 53.85-21.53 54.9-18.98 55.95-16.43 55.95-13.31ZM49.24-13.31L49.24-13.31Q49.24-14.92 48.72-16.22 48.19-17.53 47.29-18.47 46.38-19.41 45.18-19.91 43.97-20.41 42.6-20.41L42.6-20.41Q41.23-20.41 40.02-19.91 38.82-19.41 37.92-18.47 37.03-17.53 36.52-16.22 36.01-14.92 36.01-13.31L36.01-13.31Q36.01-11.79 36.52-10.5 37.03-9.2 37.92-8.25 38.82-7.3 40.02-6.75 41.23-6.2 42.6-6.2L42.6-6.2Q43.97-6.2 45.18-6.71 46.38-7.23 47.29-8.15 48.19-9.08 48.72-10.4 49.24-11.72 49.24-13.31ZM81.05 0L78.85-3.05Q78.05-2.32 77.13-1.67 76.22-1.03 75.21-0.55 74.21-0.07 73.15 0.21 72.09 0.49 70.99 0.49L70.99 0.49Q68.57 0.49 66.45-0.37 64.33-1.22 62.73-2.8 61.13-4.37 60.21-6.63 59.3-8.89 59.3-11.69L59.3-11.69 59.3-26.15 65.94-26.15 65.94-11.69Q65.94-10.38 66.34-9.34 66.74-8.3 67.43-7.59 68.11-6.88 69.03-6.52 69.94-6.15 70.99-6.15L70.99-6.15Q72.02-6.15 72.93-6.63 73.85-7.1 74.53-7.89 75.21-8.67 75.61-9.66 76-10.64 76-11.69L76-11.69 76-26.15 82.66-26.15 82.66 0 81.05 0ZM126.99-13.31L126.99-13.31Q126.99-10.38 125.94-7.85 124.89-5.32 123.09-3.48 121.28-1.64 118.85-0.57 116.42 0.49 113.64 0.49L113.64 0.49Q110.88 0.49 108.45-0.57 106.02-1.64 104.2-3.48 102.38-5.32 101.33-7.85 100.28-10.38 100.28-13.31L100.28-13.31Q100.28-16.28 101.33-18.82 102.38-21.36 104.2-23.21 106.02-25.05 108.45-26.1 110.88-27.15 113.64-27.15L113.64-27.15Q116.42-27.15 118.85-26.16 121.28-25.17 123.09-23.35 124.89-21.53 125.94-18.98 126.99-16.43 126.99-13.31ZM120.28-13.31L120.28-13.31Q120.28-14.92 119.75-16.22 119.23-17.53 118.32-18.47 117.42-19.41 116.21-19.91 115-20.41 113.64-20.41L113.64-20.41Q112.27-20.41 111.06-19.91 109.85-19.41 108.96-18.47 108.07-17.53 107.56-16.22 107.05-14.92 107.05-13.31L107.05-13.31Q107.05-11.79 107.56-10.5 108.07-9.2 108.96-8.25 109.85-7.3 111.06-6.75 112.27-6.2 113.64-6.2L113.64-6.2Q115-6.2 116.21-6.71 117.42-7.23 118.32-8.15 119.23-9.08 119.75-10.4 120.28-11.72 120.28-13.31ZM137.34-14.94L137.34 0 130.68 0 130.68-26.15 132.29-26.15 134.48-23.61Q136.1-25.07 138.13-25.87 140.17-26.66 142.39-26.66L142.39-26.66Q144.79-26.66 146.91-25.74 149.04-24.83 150.62-23.23 152.21-21.63 153.12-19.49 154.04-17.36 154.04-14.94L154.04-14.94 154.04 0 147.38 0 147.38-14.94Q147.38-15.97 146.98-16.88 146.59-17.8 145.91-18.48 145.23-19.17 144.32-19.56 143.42-19.95 142.39-19.95L142.39-19.95Q141.34-19.95 140.42-19.56 139.49-19.17 138.81-18.48 138.12-17.8 137.73-16.88 137.34-15.97 137.34-14.94L137.34-14.94ZM165.49-36.55L165.49 0 158.77 0 158.77-36.55 165.49-36.55ZM180.28 10.01L176.86 9.96 176.86 3.25 180.57 3.3Q181.55 3.3 182.45 2.98 183.36 2.66 184.13 2.1 184.89 1.54 185.48 0.77 186.07 0 186.43-0.9L186.43-0.9Q185.33-0.44 184.2 0.02 183.06 0.49 181.92 0.49L181.92 0.49Q179.5 0.49 177.38-0.37 175.25-1.22 173.65-2.8 172.05-4.37 171.14-6.63 170.22-8.89 170.22-11.69L170.22-11.69 170.22-26.15 176.86-26.15 176.86-11.69Q176.86-10.3 177.27-9.27 177.67-8.23 178.35-7.53 179.04-6.84 179.95-6.49 180.87-6.15 181.92-6.15L181.92-6.15Q182.94-6.15 183.86-6.63 184.77-7.1 185.46-7.89 186.14-8.67 186.53-9.66 186.92-10.64 186.92-11.69L186.92-11.69 186.92-26.15 193.63-26.15 193.63-3.3Q193.61-0.54 192.56 1.88 191.51 4.3 189.69 6.1 187.87 7.91 185.46 8.96 183.04 10.01 180.28 10.01L180.28 10.01ZM219.41-36.55L219.41 0 212.7 0 212.7-36.55 219.41-36.55ZM232.35-33.25L232.35-33.25Q232.35-32.32 231.99-31.52 231.64-30.71 231.03-30.11 230.42-29.52 229.6-29.16 228.78-28.81 227.86-28.81L227.86-28.81Q226.93-28.81 226.11-29.16 225.29-29.52 224.69-30.11 224.1-30.71 223.74-31.52 223.39-32.32 223.39-33.25L223.39-33.25Q223.39-34.16 223.74-34.97 224.1-35.79 224.69-36.39 225.29-36.99 226.11-37.34 226.93-37.7 227.86-37.7L227.86-37.7Q228.78-37.7 229.6-37.34 230.42-36.99 231.03-36.39 231.64-35.79 231.99-34.97 232.35-34.16 232.35-33.25ZM231.2-26.15L231.2 0 224.49 0 224.49-26.15 231.2-26.15ZM250.39 0L243.7 0 233.74-26.15 241.33-26.15 247.04-9.84 252.73-26.15 260.35-26.15 250.39 0ZM285.03-21.46L272.53-6.4Q272.92-6.27 273.31-6.24 273.7-6.2 274.09-6.2L274.09-6.2Q275.07-6.2 275.97-6.47 276.87-6.74 277.67-7.24 278.46-7.74 279.08-8.46 279.71-9.18 280.1-10.06L280.1-10.06 284.98-5.15Q284.05-3.83 282.84-2.78 281.64-1.73 280.23-1 278.83-0.27 277.28 0.11 275.73 0.49 274.09 0.49L274.09 0.49Q271.33 0.49 268.9-0.54 266.47-1.56 264.66-3.39 262.84-5.22 261.79-7.75 260.74-10.28 260.74-13.31L260.74-13.31Q260.74-16.41 261.79-18.97 262.84-21.53 264.66-23.34 266.47-25.15 268.9-26.15 271.33-27.15 274.09-27.15L274.09-27.15Q275.73-27.15 277.29-26.76 278.85-26.37 280.26-25.63 281.66-24.9 282.88-23.84 284.1-22.78 285.03-21.46L285.03-21.46ZM268.18-9.84L275.95-20.14Q275.48-20.31 275.03-20.36 274.58-20.41 274.09-20.41L274.09-20.41Q272.72-20.41 271.52-19.91 270.31-19.41 269.42-18.48 268.52-17.55 268.01-16.25 267.5-14.94 267.5-13.31L267.5-13.31Q267.5-12.94 267.54-12.48 267.57-12.01 267.66-11.54 267.74-11.06 267.87-10.62 267.99-10.18 268.18-9.84L268.18-9.84ZM327.63-13.31L327.63-13.31Q327.63-10.38 326.58-7.85 325.53-5.32 323.72-3.48 321.91-1.64 319.48-0.57 317.05 0.49 314.27 0.49L314.27 0.49Q311.51 0.49 309.08-0.57 306.65-1.64 304.84-3.48 303.02-5.32 301.97-7.85 300.92-10.38 300.92-13.31L300.92-13.31Q300.92-16.28 301.97-18.82 303.02-21.36 304.84-23.21 306.65-25.05 309.08-26.1 311.51-27.15 314.27-27.15L314.27-27.15Q317.05-27.15 319.48-26.16 321.91-25.17 323.72-23.35 325.53-21.53 326.58-18.98 327.63-16.43 327.63-13.31ZM320.91-13.31L320.91-13.31Q320.91-14.92 320.39-16.22 319.86-17.53 318.96-18.47 318.06-19.41 316.85-19.91 315.64-20.41 314.27-20.41L314.27-20.41Q312.9-20.41 311.7-19.91 310.49-19.41 309.6-18.47 308.71-17.53 308.19-16.22 307.68-14.92 307.68-13.31L307.68-13.31Q307.68-11.79 308.19-10.5 308.71-9.2 309.6-8.25 310.49-7.3 311.7-6.75 312.9-6.2 314.27-6.2L314.27-6.2Q315.64-6.2 316.85-6.71 318.06-7.23 318.96-8.15 319.86-9.08 320.39-10.4 320.91-11.72 320.91-13.31ZM337.98-14.94L337.98 0 331.31 0 331.31-26.15 332.92-26.15 335.12-23.61Q336.73-25.07 338.77-25.87 340.81-26.66 343.03-26.66L343.03-26.66Q345.42-26.66 347.55-25.74 349.67-24.83 351.26-23.23 352.84-21.63 353.76-19.49 354.67-17.36 354.67-14.94L354.67-14.94 354.67 0 348.01 0 348.01-14.94Q348.01-15.97 347.62-16.88 347.23-17.8 346.54-18.48 345.86-19.17 344.96-19.56 344.05-19.95 343.03-19.95L343.03-19.95Q341.98-19.95 341.05-19.56 340.12-19.17 339.44-18.48 338.76-17.8 338.37-16.88 337.98-15.97 337.98-14.94L337.98-14.94ZM372.47 0L365.78 0 355.82-26.15 363.41-26.15 369.13-9.84 374.81-26.15 382.43-26.15 372.47 0ZM407.11-21.46L394.61-6.4Q395-6.27 395.39-6.24 395.78-6.2 396.17-6.2L396.17-6.2Q397.15-6.2 398.05-6.47 398.96-6.74 399.75-7.24 400.54-7.74 401.17-8.46 401.79-9.18 402.18-10.06L402.18-10.06 407.06-5.15Q406.13-3.83 404.93-2.78 403.72-1.73 402.31-1 400.91-0.27 399.36 0.11 397.81 0.49 396.17 0.49L396.17 0.49Q393.41 0.49 390.99-0.54 388.56-1.56 386.74-3.39 384.92-5.22 383.87-7.75 382.82-10.28 382.82-13.31L382.82-13.31Q382.82-16.41 383.87-18.97 384.92-21.53 386.74-23.34 388.56-25.15 390.99-26.15 393.41-27.15 396.17-27.15L396.17-27.15Q397.81-27.15 399.37-26.76 400.93-26.37 402.34-25.63 403.74-24.9 404.96-23.84 406.18-22.78 407.11-21.46L407.11-21.46ZM390.27-9.84L398.03-20.14Q397.56-20.31 397.11-20.36 396.66-20.41 396.17-20.41L396.17-20.41Q394.81-20.41 393.6-19.91 392.39-19.41 391.5-18.48 390.61-17.55 390.09-16.25 389.58-14.94 389.58-13.31L389.58-13.31Q389.58-12.94 389.62-12.48 389.65-12.01 389.74-11.54 389.83-11.06 389.95-10.62 390.07-10.18 390.27-9.84L390.27-9.84Z" opacity="1" transform="matrix(1,0,0,1,0,0)" fill="#106a46" class="slogan-text-1" data-fill-palette-color="secondary" id="text-1"></path></svg></g></svg></g></svg></g></svg></g><g><svg viewBox="0 0 81.0832197291804 84.97663961770023" height="84.97663961770023" width="81.0832197291804"><g><svg xmlns="http://www.w3.org/2000/svg" xmlns:xlink="http://www.w3.org/1999/xlink" version="1.1" x="0" y="0" viewBox="15.989575904190279 10.310000000000006 67.92218061912395 71.18363927576586" enable-background="new 0 0 100 100" xml:space="preserve" height="84.97663961770023" width="81.0832197291804" class="icon-icon-0" data-fill-palette-color="accent" id="icon-0"><g fill="#106a46" data-fill-palette-color="accent"><path d="M68.942 17.667c-0.033-0.052-0.068-0.107-0.101-0.157C68.843 17.583 68.887 17.633 68.942 17.667z" fill="#106a46" data-fill-palette-color="accent"></path><path d="M62.122 50.63c2.198-2.441 3.941-5.338 6.479-7.44 0.152-1.831 1.41-1.026 0.96-2.64 0.717-0.344 0.816 0.196 1.44-0.24-0.644-1.58 1.068-1.582 0.72-3.12 0.655-0.021 0.483 0.4 0.96 0 0.376-1.728 2.63-3.983 2.4-6.96 0.317 0.003 0.219 0.421 0.479 0.48 4.241-9.524-2.837-19.233-12.24-20.4-0.8 0-1.6 0-2.399 0-4.271 0.479-7.21 2.59-9.84 5.28-1.802 3.251-3.744 6.781-3.12 11.04C49.273 35.581 58.1 44.373 62.122 50.63zM51.321 22.79c1.017-6.56 9.455-11.317 16.32-6.96-0.575 1.351 1.14 0.529 1.68 1.68-0.041 0.21-0.251 0.237-0.379 0.157 0.6 0.939 1.387 2.228 2.3 2.482-0.028 0.92 0.396 4.007 1.439 5.76-1.317-0.34-0.738 1.398-1.439 3.36-0.528 1.476-2.23 4.839-3.12 6.48-0.556 1.025-1.705 2.878-2.16 3.6-0.038 0.06-0.401-0.351-0.48-0.24-1.227 1.72-2.001 3.813-3.12 5.28-1.557-0.736-2.406-2.944-3.84-4.8C55.638 35.854 50.269 29.588 51.321 22.79z" fill="#106a46" data-fill-palette-color="accent"></path><path d="M64.042 29.99c2.655-1.052 3.836-5.746 2.677-8.541 0.059 0.077 0.17 0.099 0.203-0.1-0.188-0.053-0.279-0.201-0.24-0.48-1.626-1.319-4.378-2.565-6.96-1.44C54.05 21.901 55.984 31.9 64.042 29.99zM59.962 24.95c0.811-0.469 1.669-0.891 2.88-0.96 0.684 0.449 0.684 2.431 0 2.88C61.196 26.915 60.011 26.501 59.962 24.95z" fill="#106a46" data-fill-palette-color="accent"></path><path d="M77.722 31.43c-0.825-0.105-1.345 0.095-1.92 0.24-0.52 3.747 2.423 5.621 3.6 9.12 1.678 4.986 1.538 14.692-1.199 19.44-0.072 1.996-2.011 4.312-3.447 5.933 0.1-0.069 0.205-0.069 0.327 0.067-1.223 1.174-2.216 4.261-3.36 3.119-0.268 0.558 0.052 0.643-0.479 1.2-3.567 0.324-3.661 3.933-6.48 4.08 0.306-0.334 1.176-0.104 1.2-0.72-2.187 1.254-4.861 2.02-6.96 3.36-1.899-1.688-5.029 1.202-6.72-0.24-4.943 0.38-9.064-1.335-13.44-3.12-0.312-0.563 0.122-0.537-0.48-0.96-2.851-1.358-5.28-2.946-6.72-4.8 0.49 0.07 0.471 0.649 0.96 0.72-0.874-2.087-3.581-3.617-3.6-5.76 6.643-0.717 12.945-1.774 18.24-3.84-0.722 1.216-0.772 2.733-0.24 4.319 3.656 1.869 4.572-1.918 5.76-4.56 0.642-1.428 2.115-3.815 1.92-5.04-0.248-1.556-2.062-1.622-3.12-2.4-2.015-1.481-4.686-5.388-6.96-5.04-0.988 0.151-1.964 1.291-1.92 2.4 0.093 2.347 4.446 3.397 5.52 5.28-6.649 2.253-13.278 4.589-22.08 4.08 0.09-2.049-1.01-3.991-1.2-6-0.613-6.477 1.995-12.766 3.84-16.081 3.764-6.76 10.859-11.196 17.52-13.68 0.497-1.348-0.142-2.431-0.96-3.12-3.944-0.247-6.953 3.062-9.36 4.08-1.764 0.746-2.993 1.591-4.32 2.88C25.501 32.353 21.1 40.052 21.322 51.35c-2.498 1.462-5.788 3.278-5.28 6.48 0.436 2.75 3.909 3.666 7.2 4.08 5.267 9.505 12.031 17.367 24.48 19.2C76.868 85.401 93.742 52.729 77.722 31.43zM19.162 56.87c0.85-0.475 1.684-0.388 2.4-0.24-0.054 0.854 0.162 1.438 0.72 1.681C21.311 58.714 19.332 58.065 19.162 56.87z" fill="#106a46" data-fill-palette-color="accent"></path><path d="M74.562 66.379c-0.362 0.406-0.685 0.765-0.921 1.051C74.063 67.405 74.314 66.756 74.562 66.379z" fill="#106a46" data-fill-palette-color="accent"></path></g></svg></g></svg></g></svg></g><defs></defs></svg><rect width="395.52" height="68.20899095050643" fill="none" stroke="none" visibility="hidden"></rect></g></svg></g></svg>