<svg xmlns="http://www.w3.org/2000/svg" version="1.1" xmlns:xlink="http://www.w3.org/1999/xlink" xmlns:svgjs="http://svgjs.dev/svgjs" width="1500" height="1500" viewBox="0 0 1500 1500"><rect width="1500" height="1500" fill="#000000"></rect><g transform="matrix(0.6666666666666666,0,0,0.6666666666666666,249.39393939393938,558.4523334745545)"><svg viewBox="0 0 396 152" data-background-color="#fff6e9" preserveAspectRatio="xMidYMid meet" height="575" width="1500" xmlns="http://www.w3.org/2000/svg" xmlns:xlink="http://www.w3.org/1999/xlink"><g id="tight-bounds" transform="matrix(1,0,0,1,0.2400000000000091,-0.047186142953762555)"><svg viewBox="0 0 395.52 152.09437228590753" height="152.09437228590753" width="395.52"><g><svg viewBox="0 0 397.4975999999999 152.85484414733705" height="152.09437228590753" width="395.52"><g><rect width="397.4975999999999" height="2.7686928573944325" x="0" y="85.91535189979271" fill="#ffffff" opacity="1" stroke-width="0" stroke="transparent" fill-opacity="1" class="rect-qz-0" data-fill-palette-color="secondary" rx="1%" id="qz-0" data-palette-color="#106a46"></rect></g><g transform="matrix(1,0,0,1,0.9887999999999693,95.9319318184291)"><svg viewBox="0 0 395.52 56.92291232890793" height="56.92291232890793" width="395.52"><g id="textblocktransform"><svg viewBox="0 0 395.52 56.92291232890793" height="56.92291232890793" width="395.52" id="textblock"><g><svg viewBox="0 0 395.52 30.70149892933619" height="30.70149892933619" width="395.52"><g transform="matrix(1,0,0,1,0,0)"><svg width="395.52" viewBox="-1 -35.5 469.22 36.25" height="30.70149892933619" data-palette-color="#f7a640"><g class="wordmark-text-0" data-fill-palette-color="primary" id="text-0"><path d="M-1 0L-1-0.75 3-2.25 16.75-35.5 18.25-35.5 32.5-1.5 35-0.75 35 0 29 0Q26.4 0 24.75-1.18 23.1-2.35 22.3-4.25L22.3-4.25 19.75-10.25 7.8-10.25 4.5-2.25 8.25-0.75 8.25 0-1 0ZM13.75-24.65L8.3-11.5 19.25-11.5 13.75-24.65ZM64.25 0.75L41-26.5 41-2.25 45-0.75 45 0 35.5 0 35.5-0.75 39.5-2.25 39.5-33.25 36-34.25 36-35 41.25-35Q43.9-35 45.4-34.05 46.9-33.1 48.25-31.5L48.25-31.5 64.25-12.75 64.25-32.75 60.25-34.25 60.25-35 69.75-35 69.75-34.25 65.75-32.75 65.75 0.75 64.25 0.75ZM70 0L70-0.75 74-2.25 87.75-35.5 89.25-35.5 103.5-1.5 106-0.75 106 0 100 0Q97.4 0 95.75-1.18 94.09-2.35 93.3-4.25L93.3-4.25 90.75-10.25 78.8-10.25 75.5-2.25 79.25-0.75 79.25 0 70 0ZM84.75-24.65L79.3-11.5 90.25-11.5 84.75-24.65ZM107.49 0L107.49-0.75 110.49-1.5 110.49-33.5 107.49-34.25 107.49-35 134.24-35 134.24-26 132.74-26Q131.79-26.75 131.09-27.9L131.09-27.9Q129.49-30.6 129.49-33.75L129.49-33.75 118.74-33.75 118.74-18 124.49-18Q124.84-19.9 125.79-21.55L125.79-21.55Q126.19-22.3 126.74-23L126.74-23 128.24-23 128.24-11.75 126.74-11.75Q126.19-12.45 125.79-13.2L125.79-13.2Q124.84-14.85 124.49-16.75L124.49-16.75 118.74-16.75 118.74-1.25 130.49-1.25Q130.49-4.4 132.09-7.1L132.09-7.1Q132.79-8.25 133.74-9L133.74-9 135.24-9 135.24 0 107.49 0ZM139.74 0L139.74-0.75 142.74-1.5 142.74-33.5 139.74-34.25 139.74-35 153.99-35 153.99-34.25 150.99-33.5 150.99-1.25 161.74-1.25Q161.74-4.4 163.34-7.1L163.34-7.1Q164.04-8.25 164.99-9L164.99-9 166.49-9 166.49 0 139.74 0Z" fill="#ffffff" data-fill-palette-color="primary"></path><path d="M179.49 0L179.49-0.75 183.49-2.25 197.24-35.5 198.74-35.5 212.99-1.5 215.49-0.75 215.49 0 209.49 0Q206.89 0 205.24-1.18 203.59-2.35 202.79-4.25L202.79-4.25 200.24-10.25 188.29-10.25 184.99-2.25 188.74-0.75 188.74 0 179.49 0ZM194.24-24.65L188.79-11.5 199.74-11.5 194.24-24.65ZM226.74 0.75Q223.79 0.75 221.49-0.78 219.19-2.3 217.84-5.28 216.49-8.25 216.49-12.5L216.49-12.5Q216.49-18.9 219.46-22.33 222.44-25.75 227.49-25.75L227.49-25.75Q229.89-25.75 231.69-24.75L231.69-24.75Q232.44-24.4 233.24-23.75L233.24-23.75 233.24-33.5 230.24-34.25 230.24-35 236.74-35Q241.24-35 241.24-30.5L241.24-30.5 241.24-1.5 244.24-0.75 244.24 0 239.74 0Q236.74 0 235.08-1.85L235.08-1.85Q234.39-2.6 233.99-3.75L233.99-3.75Q233.33-2.5 232.33-1.5L232.33-1.5Q230.09 0.75 226.74 0.75L226.74 0.75ZM228.74-1Q230.58-1 232.08-3L232.08-3Q232.64-3.75 233.24-5L233.24-5 233.24-22.25Q232.69-22.8 232.08-23.25L232.08-23.25Q230.74-24.25 229.49-24.25L229.49-24.25Q227.34-24.25 226.16-21.75 224.99-19.25 224.99-12.5L224.99-12.5Q224.99-6.05 226.06-3.53 227.14-1 228.74-1L228.74-1ZM259.48 0.5L246.98-23.5 244.48-24.25 244.48-25 250.73-25Q253.33-25 254.86-23.93 256.38-22.85 257.48-20.75L257.48-20.75 263.43-9.2 268.98-22.75 265.23-24.25 265.23-25 274.48-25 274.48-24.25 270.48-22.75 260.98 0.5 259.48 0.5ZM288.98 0.75Q282.58 0.75 279.03-2.78 275.48-6.3 275.48-12.5L275.48-12.5Q275.48-16.55 277.03-19.55 278.58-22.55 281.36-24.15 284.13-25.75 287.73-25.75L287.73-25.75Q291.33-25.75 294.06-24.4 296.78-23.05 298.26-20.78 299.73-18.5 299.73-15.75L299.73-15.75Q299.73-14.5 299.48-13.6L299.48-13.6 299.23-12.75Q297.08-12.3 294.58-12L294.58-12Q289.33-11.25 283.98-11.25L283.98-11.25Q283.98-5.45 285.58-2.98 287.18-0.5 289.98-0.5L289.98-0.5Q291.93-0.5 293.61-1.43 295.28-2.35 296.26-3.88 297.23-5.4 297.23-7L297.23-7 298.48-7Q298.48-5 297.28-3.2 296.08-1.4 293.93-0.33 291.78 0.75 288.98 0.75L288.98 0.75ZM283.98-12.5Q287.18-12.5 289.18-12.75L289.18-12.75Q290.03-12.8 290.98-13L290.98-13Q291.03-13.25 291.23-14.1L291.23-14.1Q291.48-15.35 291.48-16.75L291.48-16.75Q291.48-20.9 290.38-22.83 289.28-24.75 287.73-24.75L287.73-24.75Q283.98-24.75 283.98-12.5L283.98-12.5ZM303.48 0L303.48-0.75 306.48-1.5 306.48-23.5 303.48-24.25 303.48-25 307.98-25Q310.93-25 312.63-23.1L312.63-23.1Q313.28-22.35 313.73-21.25L313.73-21.25Q314.43-22.55 315.38-23.5L315.38-23.5Q317.63-25.75 320.98-25.75L320.98-25.75Q323.78-25.75 326-24.58 328.23-23.4 329.48-21.5 330.73-19.6 330.73-17.5L330.73-17.5 330.73-1.5 333.73-0.75 333.73 0 327.23 0Q322.73 0 322.73-4.5L322.73-4.5 322.73-17.5Q322.73-20.65 321.6-22.33 320.48-24 318.98-24L318.98-24Q317.08-24 315.58-22L315.58-22Q314.93-21.15 314.48-20L314.48-20 314.48-1.5 317.48-0.75 317.48 0 303.48 0ZM349.73 0.75Q346.43 0.75 344-0.45 341.58-1.65 340.28-3.75 338.98-5.85 338.98-8.5L338.98-8.5 338.98-23.75 335.48-23.75 335.48-25 338.98-25 338.98-27.5Q338.98-32 343.48-32L343.48-32 346.98-32 346.98-25 353.98-25 353.98-23.75 346.98-23.75 346.98-8.5Q346.98-3.9 347.93-2.2 348.88-0.5 350.73-0.5L350.73-0.5Q352.53-0.5 353.88-2.25 355.23-4 355.23-7L355.23-7 356.48-7Q356.48-3.3 354.63-1.28 352.78 0.75 349.73 0.75L349.73 0.75ZM371.22 0.75Q368.42 0.75 366.2-0.43 363.97-1.6 362.72-3.5 361.47-5.4 361.47-7.5L361.47-7.5 361.47-23.5 358.47-24.25 358.47-25 364.97-25Q369.47-25 369.47-20.5L369.47-20.5 369.47-7.5Q369.47-4.35 370.6-2.68 371.72-1 373.22-1L373.22-1Q375.07-1 376.57-3L376.57-3Q377.12-3.75 377.72-5L377.72-5 377.72-23.5 374.72-24.25 374.72-25 388.72-25 388.72-24.25 385.72-23.5 385.72 0.25 385.22 0.25Q381.57 0.25 379.67-1.75L379.67-1.75Q378.82-2.65 378.47-3.75L378.47-3.75Q377.77-2.5 376.82-1.5L376.82-1.5Q374.57 0.75 371.22 0.75L371.22 0.75ZM391.72 0L391.72-0.75 394.72-1.5 394.72-23.5 391.72-24.25 391.72-25 396.22-25Q399.17-25 400.87-23.1L400.87-23.1Q401.52-22.35 401.97-21.25L401.97-21.25Q402.72-22.35 403.82-23.25L403.82-23.25Q406.32-25.25 409.42-25.25L409.42-25.25Q412.07-25.25 413.4-24.03 414.72-22.8 414.72-20.5L414.72-20.5Q414.72-18.8 413.7-17.78 412.67-16.75 410.97-16.75L410.97-16.75Q410.27-16.75 409.57-16.85L409.57-16.85 408.97-17 408.97-24Q406.42-24 404.32-22L404.32-22Q403.32-21 402.72-20L402.72-20 402.72-1.5 405.72-0.75 405.72 0 391.72 0ZM430.47 0.75Q424.07 0.75 420.52-2.78 416.97-6.3 416.97-12.5L416.97-12.5Q416.97-16.55 418.52-19.55 420.07-22.55 422.84-24.15 425.62-25.75 429.22-25.75L429.22-25.75Q432.82-25.75 435.54-24.4 438.27-23.05 439.74-20.78 441.22-18.5 441.22-15.75L441.22-15.75Q441.22-14.5 440.97-13.6L440.97-13.6 440.72-12.75Q438.57-12.3 436.07-12L436.07-12Q430.82-11.25 425.47-11.25L425.47-11.25Q425.47-5.45 427.07-2.98 428.67-0.5 431.47-0.5L431.47-0.5Q433.42-0.5 435.09-1.43 436.77-2.35 437.74-3.88 438.72-5.4 438.72-7L438.72-7 439.97-7Q439.97-5 438.77-3.2 437.57-1.4 435.42-0.33 433.27 0.75 430.47 0.75L430.47 0.75ZM425.47-12.5Q428.67-12.5 430.67-12.75L430.67-12.75Q431.52-12.8 432.47-13L432.47-13Q432.52-13.25 432.72-14.1L432.72-14.1Q432.97-15.35 432.97-16.75L432.97-16.75Q432.97-20.9 431.87-22.83 430.77-24.75 429.22-24.75L429.22-24.75Q425.47-24.75 425.47-12.5L425.47-12.5ZM456.72 0.75Q453.62 0.75 451.17-0.6L451.17-0.6Q449.97-1.25 449.22-2L449.22-2Q448.42-0.9 447.47-0.3L447.47-0.3Q447.02 0 446.47 0.25L446.47 0.25 445.22 0.25 445.22-8.25 447.22-8.25Q447.87-6.15 449.12-4.35L449.12-4.35Q451.77-0.5 455.72-0.5L455.72-0.5Q457.82-0.5 458.89-1.53 459.97-2.55 459.97-4.5L459.97-4.5Q459.97-6.15 458.49-7.28 457.02-8.4 453.87-10.05L453.87-10.05Q451.17-11.4 449.49-12.48 447.82-13.55 446.64-15.18 445.47-16.8 445.47-19L445.47-19Q445.47-22 448.04-23.88 450.62-25.75 455.97-25.75L455.97-25.75Q458.62-25.75 460.87-24.35L460.87-24.35Q461.97-23.7 462.77-23L462.77-23Q463.42-23.9 464.52-24.7L464.52-24.7Q465.37-25.2 465.52-25.25L465.52-25.25 466.77-25.25 466.77-16.75 464.77-16.75Q464.02-18.9 462.92-20.6L462.92-20.6Q460.42-24.5 456.97-24.5L456.97-24.5Q455.62-24.5 454.67-23.5 453.72-22.5 453.72-21L453.72-21Q453.72-19.1 455.32-17.82 456.92-16.55 460.17-14.9L460.17-14.9Q462.82-13.55 464.39-12.53 465.97-11.5 467.09-10 468.22-8.5 468.22-6.5L468.22-6.5Q468.22 0.75 456.72 0.75L456.72 0.75Z" fill="#ffffff" data-fill-palette-color="secondary"></path></g></svg></g></svg></g><g transform="matrix(1,0,0,1,113.27215219475573,37.94938599057816)"><svg viewBox="0 0 168.97569561048851 18.973526338329766" height="18.973526338329766" width="168.97569561048851"><g transform="matrix(1,0,0,1,0,0)"><svg width="168.97569561048851" viewBox="0.95 -39.05 453.71000000000004 50.949999999999996" height="18.973526338329766" data-palette-color="#106a46"><path d="M9.2 11.9L9.2 11.9Q8.8 11.9 8.3 11.7L8.3 11.7Q6.6 10.95 7.35 9.3L7.35 9.3 23.5-26.3Q24.25-27.9 25.9-27.2L25.9-27.2Q27.6-26.5 26.85-24.85L26.85-24.85 10.65 10.75Q10.15 11.9 9.2 11.9ZM14.75-0.85L14.75-0.85Q14-0.5 13.35-0.73 12.7-0.95 12.3-1.7L12.3-1.7 1.15-24.8Q0.8-25.55 1.05-26.2 1.3-26.85 2.05-27.2L2.05-27.2Q2.8-27.55 3.45-27.33 4.1-27.1 4.45-26.35L4.45-26.35 15.4-3.25Q15.8-2.5 15.65-1.85 15.5-1.2 14.75-0.85ZM43.35 0.25L43.35 0.25Q39.35 0.25 36.2-1.55 33.05-3.35 31.25-6.5 29.45-9.65 29.45-13.65L29.45-13.65Q29.45-17.7 31.25-20.85 33.05-24 36.2-25.8 39.35-27.6 43.35-27.6L43.35-27.6Q47.35-27.6 50.47-25.8 53.6-24 55.4-20.85 57.2-17.7 57.25-13.65L57.25-13.65Q57.25-9.65 55.42-6.5 53.6-3.35 50.47-1.55 47.35 0.25 43.35 0.25ZM43.35-3.25L43.35-3.25Q46.25-3.25 48.55-4.6 50.85-5.95 52.15-8.3 53.45-10.65 53.45-13.65L53.45-13.65Q53.45-16.65 52.15-19.03 50.85-21.4 48.55-22.75 46.25-24.1 43.35-24.1L43.35-24.1Q40.45-24.1 38.15-22.75 35.85-21.4 34.52-19.03 33.2-16.65 33.2-13.65L33.2-13.65Q33.2-10.65 34.52-8.3 35.85-5.95 38.15-4.6 40.45-3.25 43.35-3.25ZM76.65 0.3L76.65 0.3Q73.09 0.3 70.3-1.18 67.5-2.65 65.87-5.5 64.25-8.35 64.25-12.45L64.25-12.45 64.25-25.45Q64.25-26.25 64.8-26.8 65.34-27.35 66.15-27.35L66.15-27.35Q67-27.35 67.55-26.8 68.09-26.25 68.09-25.45L68.09-25.45 68.09-12.45Q68.09-9.35 69.27-7.35 70.45-5.35 72.47-4.35 74.5-3.35 77.05-3.35L77.05-3.35Q79.5-3.35 81.47-4.3 83.45-5.25 84.59-6.9 85.75-8.55 85.75-10.65L85.75-10.65 88.5-10.65Q88.34-7.5 86.77-5.03 85.2-2.55 82.55-1.13 79.9 0.3 76.65 0.3ZM87.65 0L87.65 0Q86.8 0 86.27-0.53 85.75-1.05 85.75-1.95L85.75-1.95 85.75-25.45Q85.75-26.3 86.27-26.83 86.8-27.35 87.65-27.35L87.65-27.35Q88.5-27.35 89.05-26.83 89.59-26.3 89.59-25.45L89.59-25.45 89.59-1.95Q89.59-1.05 89.05-0.53 88.5 0 87.65 0ZM125.69 0.25L125.69 0.25Q121.69 0.25 118.54-1.55 115.39-3.35 113.59-6.5 111.79-9.65 111.79-13.65L111.79-13.65Q111.79-17.7 113.59-20.85 115.39-24 118.54-25.8 121.69-27.6 125.69-27.6L125.69-27.6Q129.69-27.6 132.81-25.8 135.94-24 137.74-20.85 139.54-17.7 139.59-13.65L139.59-13.65Q139.59-9.65 137.77-6.5 135.94-3.35 132.81-1.55 129.69 0.25 125.69 0.25ZM125.69-3.25L125.69-3.25Q128.59-3.25 130.89-4.6 133.19-5.95 134.49-8.3 135.79-10.65 135.79-13.65L135.79-13.65Q135.79-16.65 134.49-19.03 133.19-21.4 130.89-22.75 128.59-24.1 125.69-24.1L125.69-24.1Q122.79-24.1 120.49-22.75 118.19-21.4 116.87-19.03 115.54-16.65 115.54-13.65L115.54-13.65Q115.54-10.65 116.87-8.3 118.19-5.95 120.49-4.6 122.79-3.25 125.69-3.25ZM170.54 0L170.54 0Q169.69 0 169.14-0.55 168.59-1.1 168.59-1.9L168.59-1.9 168.59-14.9Q168.59-18 167.41-20 166.24-22 164.21-23 162.19-24 159.64-24L159.64-24Q157.19-24 155.21-23.05 153.24-22.1 152.09-20.45 150.94-18.8 150.94-16.7L150.94-16.7 148.19-16.7Q148.29-19.85 149.89-22.33 151.49-24.8 154.14-26.23 156.79-27.65 160.04-27.65L160.04-27.65Q163.59-27.65 166.39-26.18 169.19-24.7 170.81-21.85 172.44-19 172.44-14.9L172.44-14.9 172.44-1.9Q172.44-1.1 171.89-0.55 171.34 0 170.54 0ZM149.04 0L149.04 0Q148.14 0 147.61-0.53 147.09-1.05 147.09-1.9L147.09-1.9 147.09-25.4Q147.09-26.3 147.61-26.83 148.14-27.35 149.04-27.35L149.04-27.35Q149.89-27.35 150.41-26.83 150.94-26.3 150.94-25.4L150.94-25.4 150.94-1.9Q150.94-1.05 150.41-0.53 149.89 0 149.04 0ZM187.49 0L186.84 0Q184.84 0 183.26-1.1 181.69-2.2 180.81-4.15 179.94-6.1 179.94-8.65L179.94-8.65 179.94-37.15Q179.94-38 180.46-38.53 180.99-39.05 181.84-39.05L181.84-39.05Q182.69-39.05 183.21-38.53 183.74-38 183.74-37.15L183.74-37.15 183.74-8.65Q183.74-6.5 184.61-5.15 185.49-3.8 186.84-3.8L186.84-3.8 188.09-3.8Q188.84-3.8 189.28-3.28 189.74-2.75 189.74-1.9L189.74-1.9Q189.74-1.05 189.11-0.53 188.49 0 187.49 0L187.49 0ZM199.73 11.9L199.73 11.9Q199.33 11.9 198.83 11.7L198.83 11.7Q197.13 10.95 197.88 9.3L197.88 9.3 214.03-26.3Q214.78-27.9 216.43-27.2L216.43-27.2Q218.13-26.5 217.38-24.85L217.38-24.85 201.18 10.75Q200.68 11.9 199.73 11.9ZM205.28-0.85L205.28-0.85Q204.53-0.5 203.88-0.73 203.23-0.95 202.83-1.7L202.83-1.7 191.68-24.8Q191.33-25.55 191.58-26.2 191.83-26.85 192.58-27.2L192.58-27.2Q193.33-27.55 193.98-27.33 194.63-27.1 194.98-26.35L194.98-26.35 205.93-3.25Q206.33-2.5 206.18-1.85 206.03-1.2 205.28-0.85ZM243.63 0L242.98 0Q240.98 0 239.4-1.1 237.83-2.2 236.95-4.15 236.08-6.1 236.08-8.65L236.08-8.65 236.08-37.15Q236.08-38 236.6-38.53 237.13-39.05 237.98-39.05L237.98-39.05Q238.83-39.05 239.35-38.53 239.88-38 239.88-37.15L239.88-37.15 239.88-8.65Q239.88-6.5 240.75-5.15 241.63-3.8 242.98-3.8L242.98-3.8 244.23-3.8Q244.98-3.8 245.43-3.28 245.88-2.75 245.88-1.9L245.88-1.9Q245.88-1.05 245.25-0.53 244.63 0 243.63 0L243.63 0ZM253.93 0L253.93 0Q253.03 0 252.5-0.53 251.98-1.05 251.98-1.95L251.98-1.95 251.98-25.4Q251.98-26.3 252.5-26.83 253.03-27.35 253.93-27.35L253.93-27.35Q254.78-27.35 255.3-26.83 255.83-26.3 255.83-25.4L255.83-25.4 255.83-1.95Q255.83-1.05 255.3-0.53 254.78 0 253.93 0ZM253.88-32.55L253.88-32.55Q252.78-32.55 251.98-33.35 251.18-34.15 251.18-35.3L251.18-35.3Q251.18-36.55 252-37.27 252.83-38 253.93-38L253.93-38Q254.98-38 255.8-37.27 256.63-36.55 256.63-35.3L256.63-35.3Q256.63-34.15 255.83-33.35 255.03-32.55 253.88-32.55ZM274.97 0L274.97 0Q273.77 0 273.17-1.3L273.17-1.3 262.07-24.85Q261.77-25.5 262.02-26.15 262.27-26.8 263.02-27.15L263.02-27.15Q263.72-27.5 264.37-27.25 265.02-27 265.37-26.35L265.37-26.35 276.02-3.3 273.97-3.3 284.47-26.35Q284.77-27.05 285.5-27.28 286.22-27.5 286.92-27.2L286.92-27.2Q287.62-26.85 287.87-26.18 288.12-25.5 287.82-24.9L287.82-24.9 276.87-1.3Q276.27 0 274.97 0ZM304.67 0.25L304.67 0.25Q300.62 0.25 297.5-1.53 294.37-3.3 292.59-6.45 290.82-9.6 290.82-13.65L290.82-13.65Q290.82-17.75 292.5-20.88 294.17-24 297.12-25.8 300.07-27.6 303.92-27.6L303.92-27.6Q307.72-27.6 310.54-25.88 313.37-24.15 314.92-21.1 316.47-18.05 316.47-14.15L316.47-14.15Q316.47-13.35 315.97-12.88 315.47-12.4 314.67-12.4L314.67-12.4 293.42-12.4 293.42-15.6 315.07-15.6 312.92-14.05Q312.97-16.95 311.87-19.25 310.77-21.55 308.75-22.85 306.72-24.15 303.92-24.15L303.92-24.15Q301.07-24.15 298.92-22.8 296.77-21.45 295.59-19.07 294.42-16.7 294.42-13.65L294.42-13.65Q294.42-10.6 295.75-8.25 297.07-5.9 299.37-4.55 301.67-3.2 304.67-3.2L304.67-3.2Q306.47-3.2 308.29-3.83 310.12-4.45 311.22-5.4L311.22-5.4Q311.77-5.85 312.47-5.88 313.17-5.9 313.67-5.5L313.67-5.5Q314.32-4.9 314.34-4.2 314.37-3.5 313.77-3L313.77-3Q312.12-1.6 309.57-0.68 307.02 0.25 304.67 0.25ZM350.06 0.25L350.06 0.25Q346.06 0.25 342.91-1.55 339.76-3.35 337.96-6.5 336.16-9.65 336.16-13.65L336.16-13.65Q336.16-17.7 337.96-20.85 339.76-24 342.91-25.8 346.06-27.6 350.06-27.6L350.06-27.6Q354.06-27.6 357.19-25.8 360.31-24 362.11-20.85 363.91-17.7 363.96-13.65L363.96-13.65Q363.96-9.65 362.14-6.5 360.31-3.35 357.19-1.55 354.06 0.25 350.06 0.25ZM350.06-3.25L350.06-3.25Q352.96-3.25 355.26-4.6 357.56-5.95 358.86-8.3 360.16-10.65 360.16-13.65L360.16-13.65Q360.16-16.65 358.86-19.03 357.56-21.4 355.26-22.75 352.96-24.1 350.06-24.1L350.06-24.1Q347.16-24.1 344.86-22.75 342.56-21.4 341.24-19.03 339.91-16.65 339.91-13.65L339.91-13.65Q339.91-10.65 341.24-8.3 342.56-5.95 344.86-4.6 347.16-3.25 350.06-3.25ZM394.91 0L394.91 0Q394.06 0 393.51-0.55 392.96-1.1 392.96-1.9L392.96-1.9 392.96-14.9Q392.96-18 391.79-20 390.61-22 388.59-23 386.56-24 384.01-24L384.01-24Q381.56-24 379.59-23.05 377.61-22.1 376.46-20.45 375.31-18.8 375.31-16.7L375.31-16.7 372.56-16.7Q372.66-19.85 374.26-22.33 375.86-24.8 378.51-26.23 381.16-27.65 384.41-27.65L384.41-27.65Q387.96-27.65 390.76-26.18 393.56-24.7 395.19-21.85 396.81-19 396.81-14.9L396.81-14.9 396.81-1.9Q396.81-1.1 396.26-0.55 395.71 0 394.91 0ZM373.41 0L373.41 0Q372.51 0 371.99-0.53 371.46-1.05 371.46-1.9L371.46-1.9 371.46-25.4Q371.46-26.3 371.99-26.83 372.51-27.35 373.41-27.35L373.41-27.35Q374.26-27.35 374.79-26.83 375.31-26.3 375.31-25.4L375.31-25.4 375.31-1.9Q375.31-1.05 374.79-0.53 374.26 0 373.41 0ZM413.16 0L413.16 0Q411.96 0 411.36-1.3L411.36-1.3 400.26-24.85Q399.96-25.5 400.21-26.15 400.46-26.8 401.21-27.15L401.21-27.15Q401.91-27.5 402.56-27.25 403.21-27 403.56-26.35L403.56-26.35 414.21-3.3 412.16-3.3 422.66-26.35Q422.96-27.05 423.69-27.28 424.41-27.5 425.11-27.2L425.11-27.2Q425.81-26.85 426.06-26.18 426.31-25.5 426.01-24.9L426.01-24.9 415.06-1.3Q414.46 0 413.16 0ZM442.86 0.25L442.86 0.25Q438.81 0.25 435.68-1.53 432.56-3.3 430.78-6.45 429.01-9.6 429.01-13.65L429.01-13.65Q429.01-17.75 430.68-20.88 432.36-24 435.31-25.8 438.26-27.6 442.11-27.6L442.11-27.6Q445.91-27.6 448.73-25.88 451.56-24.15 453.11-21.1 454.66-18.05 454.66-14.15L454.66-14.15Q454.66-13.35 454.16-12.88 453.66-12.4 452.86-12.4L452.86-12.4 431.61-12.4 431.61-15.6 453.26-15.6 451.11-14.05Q451.16-16.95 450.06-19.25 448.96-21.55 446.93-22.85 444.91-24.15 442.11-24.15L442.11-24.15Q439.26-24.15 437.11-22.8 434.96-21.45 433.78-19.07 432.61-16.7 432.61-13.65L432.61-13.65Q432.61-10.6 433.93-8.25 435.26-5.9 437.56-4.55 439.86-3.2 442.86-3.2L442.86-3.2Q444.66-3.2 446.48-3.83 448.31-4.45 449.41-5.4L449.41-5.4Q449.96-5.85 450.66-5.88 451.36-5.9 451.86-5.5L451.86-5.5Q452.51-4.9 452.53-4.2 452.56-3.5 451.96-3L451.96-3Q450.31-1.6 447.76-0.68 445.21 0.25 442.86 0.25Z" opacity="1" transform="matrix(1,0,0,1,0,0)" fill="#ffffff" class="slogan-text-1" data-fill-palette-color="secondary" id="text-1"></path></svg></g></svg></g></svg></g></svg></g><g transform="matrix(1,0,0,1,153.2172421169253,0)"><svg viewBox="0 0 91.06311576614932 78.66746483855074" height="78.66746483855074" width="91.06311576614932"><g><svg xmlns="http://www.w3.org/2000/svg" xmlns:xlink="http://www.w3.org/1999/xlink" version="1.1" x="8" y="0" viewBox="15.989575904190279 10.310000000000006 67.92218061912395 71.18363927576586" enable-background="new 0 0 100 100" xml:space="preserve" height="78.66746483855074" width="75.06311576614932" class="icon-icon-0" data-fill-palette-color="accent" id="icon-0"><g fill="#106a46" data-fill-palette-color="accent"><path d="M68.942 17.667c-0.033-0.052-0.068-0.107-0.101-0.157C68.843 17.583 68.887 17.633 68.942 17.667z" fill="#ffffff" data-fill-palette-color="accent"></path><path d="M62.122 50.63c2.198-2.441 3.941-5.338 6.479-7.44 0.152-1.831 1.41-1.026 0.96-2.64 0.717-0.344 0.816 0.196 1.44-0.24-0.644-1.58 1.068-1.582 0.72-3.12 0.655-0.021 0.483 0.4 0.96 0 0.376-1.728 2.63-3.983 2.4-6.96 0.317 0.003 0.219 0.421 0.479 0.48 4.241-9.524-2.837-19.233-12.24-20.4-0.8 0-1.6 0-2.399 0-4.271 0.479-7.21 2.59-9.84 5.28-1.802 3.251-3.744 6.781-3.12 11.04C49.273 35.581 58.1 44.373 62.122 50.63zM51.321 22.79c1.017-6.56 9.455-11.317 16.32-6.96-0.575 1.351 1.14 0.529 1.68 1.68-0.041 0.21-0.251 0.237-0.379 0.157 0.6 0.939 1.387 2.228 2.3 2.482-0.028 0.92 0.396 4.007 1.439 5.76-1.317-0.34-0.738 1.398-1.439 3.36-0.528 1.476-2.23 4.839-3.12 6.48-0.556 1.025-1.705 2.878-2.16 3.6-0.038 0.06-0.401-0.351-0.48-0.24-1.227 1.72-2.001 3.813-3.12 5.28-1.557-0.736-2.406-2.944-3.84-4.8C55.638 35.854 50.269 29.588 51.321 22.79z" fill="#ffffff" data-fill-palette-color="accent"></path><path d="M64.042 29.99c2.655-1.052 3.836-5.746 2.677-8.541 0.059 0.077 0.17 0.099 0.203-0.1-0.188-0.053-0.279-0.201-0.24-0.48-1.626-1.319-4.378-2.565-6.96-1.44C54.05 21.901 55.984 31.9 64.042 29.99zM59.962 24.95c0.811-0.469 1.669-0.891 2.88-0.96 0.684 0.449 0.684 2.431 0 2.88C61.196 26.915 60.011 26.501 59.962 24.95z" fill="#ffffff" data-fill-palette-color="accent"></path><path d="M77.722 31.43c-0.825-0.105-1.345 0.095-1.92 0.24-0.52 3.747 2.423 5.621 3.6 9.12 1.678 4.986 1.538 14.692-1.199 19.44-0.072 1.996-2.011 4.312-3.447 5.933 0.1-0.069 0.205-0.069 0.327 0.067-1.223 1.174-2.216 4.261-3.36 3.119-0.268 0.558 0.052 0.643-0.479 1.2-3.567 0.324-3.661 3.933-6.48 4.08 0.306-0.334 1.176-0.104 1.2-0.72-2.187 1.254-4.861 2.02-6.96 3.36-1.899-1.688-5.029 1.202-6.72-0.24-4.943 0.38-9.064-1.335-13.44-3.12-0.312-0.563 0.122-0.537-0.48-0.96-2.851-1.358-5.28-2.946-6.72-4.8 0.49 0.07 0.471 0.649 0.96 0.72-0.874-2.087-3.581-3.617-3.6-5.76 6.643-0.717 12.945-1.774 18.24-3.84-0.722 1.216-0.772 2.733-0.24 4.319 3.656 1.869 4.572-1.918 5.76-4.56 0.642-1.428 2.115-3.815 1.92-5.04-0.248-1.556-2.062-1.622-3.12-2.4-2.015-1.481-4.686-5.388-6.96-5.04-0.988 0.151-1.964 1.291-1.92 2.4 0.093 2.347 4.446 3.397 5.52 5.28-6.649 2.253-13.278 4.589-22.08 4.08 0.09-2.049-1.01-3.991-1.2-6-0.613-6.477 1.995-12.766 3.84-16.081 3.764-6.76 10.859-11.196 17.52-13.68 0.497-1.348-0.142-2.431-0.96-3.12-3.944-0.247-6.953 3.062-9.36 4.08-1.764 0.746-2.993 1.591-4.32 2.88C25.501 32.353 21.1 40.052 21.322 51.35c-2.498 1.462-5.788 3.278-5.28 6.48 0.436 2.75 3.909 3.666 7.2 4.08 5.267 9.505 12.031 17.367 24.48 19.2C76.868 85.401 93.742 52.729 77.722 31.43zM19.162 56.87c0.85-0.475 1.684-0.388 2.4-0.24-0.054 0.854 0.162 1.438 0.72 1.681C21.311 58.714 19.332 58.065 19.162 56.87z" fill="#ffffff" data-fill-palette-color="accent"></path><path d="M74.562 66.379c-0.362 0.406-0.685 0.765-0.921 1.051C74.063 67.405 74.314 66.756 74.562 66.379z" fill="#ffffff" data-fill-palette-color="accent"></path></g></svg></g></svg></g><g><rect width="76.68412211692532" height="2.7686928573944325" y="74.89877198115632" x="244.2803578830746" fill="#ffffff" data-fill-palette-color="secondary"></rect><rect width="76.68412211692532" height="2.7686928573944325" y="74.89877198115632" x="76.53311999999997" fill="#ffffff" data-fill-palette-color="secondary"></rect></g></svg></g><defs></defs></svg><rect width="395.52" height="152.09437228590753" fill="none" stroke="none" visibility="hidden"></rect></g></svg></g></svg>